<?xml version="1.0" encoding="utf-8"?>
<!-- Generator: Adobe Illustrator 19.1.0, SVG Export Plug-In . SVG Version: 6.00 Build 0)  -->
<svg version="1.1" id="Capa_1" xmlns="http://www.w3.org/2000/svg" xmlns:xlink="http://www.w3.org/1999/xlink" x="0px" y="0px"
	 viewBox="-42 165.9 510 510" style="enable-background:new -42 165.9 510 510;" xml:space="preserve">
<style type="text/css">
	.st0{fill:#FFFFFF;}
	.st1{fill:none;stroke:#FFFFFF;stroke-miterlimit:10;}
</style>
<g id="post-twitter">
	<g id="XMLID_1_">
		<g>
			<path class="st0" d="M386.4,318.9c-2.5,12.8-15.3,23-28,33.1c-2.6,117.3-76.5,198.9-188.7,204c-45.9,2.5-79-12.8-109.6-30.6
				c33.2,5.1,76.5-7.6,99.4-28c-33.1-2.5-53.5-20.4-63.8-48.5c10.2,2.6,20.4,0,28.1,0c-30.6-10.2-51-28-53.6-68.8
				c7.7,5.1,17.9,7.6,28.1,7.6C75.3,375,60,326.5,77.8,295.9c33.2,35.7,74,66.3,140.3,71.4c-17.9-71.4,79-109.7,117.3-61.2
				c17.9-2.5,30.6-10.2,43.4-15.3c-5.1,17.8-15.3,28-28,38.3C363.5,326.5,376.2,324,386.4,318.9z"/>
			<path d="M468,216.9v408c0,28-23,51-51,51H9c-28,0-51-23-51-51v-408c0-28.1,23-51,51-51h408C445,165.9,468,188.8,468,216.9z
				 M358.4,352c12.8-10.2,25.5-20.4,28-33.1c-10.2,5.1-22.9,7.6-35.7,10.2c12.8-10.2,22.9-20.4,28-38.3
				c-12.8,5.1-25.5,12.8-43.4,15.3c-38.3-48.5-135.1-10.2-117.3,61.2c-66.3-5.1-107.1-35.7-140.3-71.4C60,326.5,75.3,375,98.3,387.7
				c-10.2,0-20.4-2.6-28.1-7.6c2.6,40.8,23,58.6,53.6,68.8c-7.7,0-17.8,2.6-28.1,0c10.2,28.1,30.6,45.9,63.8,48.5
				c-22.9,20.4-66.3,33.2-99.4,28c30.6,17.9,63.8,33.2,109.6,30.6C281.9,550.9,355.8,469.3,358.4,352z"/>
		</g>
		<g>
			<path class="st1" d="M417,165.9H9c-28,0-51,22.9-51,51v408c0,28,23,51,51,51h408c28,0,51-23,51-51v-408
				C468,188.8,445,165.9,417,165.9z"/>
			<path class="st1" d="M358.4,352c-2.6,117.3-76.5,198.9-188.7,204c-45.9,2.5-79-12.8-109.6-30.6c33.2,5.1,76.5-7.6,99.4-28
				c-33.1-2.5-53.5-20.4-63.8-48.5c10.2,2.6,20.4,0,28.1,0c-30.6-10.2-51-28-53.6-68.8c7.7,5.1,17.9,7.6,28.1,7.6
				C75.3,375,60,326.5,77.8,295.9c33.2,35.7,74,66.3,140.3,71.4c-17.9-71.4,79-109.7,117.3-61.2c17.9-2.5,30.6-10.2,43.4-15.3
				c-5.1,17.8-15.3,28-28,38.3c12.8-2.6,25.5-5.1,35.7-10.2C383.9,331.6,371.1,341.8,358.4,352z"/>
		</g>
	</g>
</g>
</svg>
