<?xml version="1.0" encoding="utf-8"?>
<!-- Generator: Adobe Illustrator 19.1.0, SVG Export Plug-In . SVG Version: 6.00 Build 0)  -->
<svg version="1.1" id="Capa_1" xmlns="http://www.w3.org/2000/svg" xmlns:xlink="http://www.w3.org/1999/xlink" x="0px" y="0px"
	 viewBox="-54 177.5 486.4 486.4" style="enable-background:new -54 177.5 486.4 486.4;" xml:space="preserve">
<style type="text/css">
	.st0{fill:#FFFFFF;}
	.st1{fill:#090509;}
	.st2{fill:none;stroke:#FFFFFF;stroke-miterlimit:10;}
</style>
<g>
	<g id="XMLID_1_">
		<g>
			<path class="st0" d="M224.4,271.3L202.7,287h-30.7c20.4,7.8,31.3,31.6,31.3,56c0,20.5-11.3,38.1-27.4,50.6
				c-15.7,12.3-18.6,17.4-18.6,27.8c0,8.9,16.8,24,25.5,30.2c25.6,18.1,33.9,34.9,33.9,63c0,35-33.9,69.8-95.3,69.8
				c-53.8,0-99.3-21.9-99.3-56.9c0-35.5,41.4-69.9,95.3-69.8l16.8-0.1c-7.3-7.2-13.2-15.9-13.2-26.8c0-6.5,2.1-12.6,4.9-18.1l-9,0.3
				c-44.2,0-73.8-31.5-73.8-70.5c0-38.2,40.9-71.1,84.4-71.1H224.4z M191.7,518.5c0-3.4-0.5-6.8-1.2-10c-4.1-16-18.6-24-38.8-38
				c-7.4-2.4-15.5-3.8-24.1-3.9c-37.2-0.4-70.5,22.7-70.5,50.4c0,28.3,26.9,51.9,64.1,51.9C173.5,568.9,191.7,546.8,191.7,518.5z
				 M131,402.9c24.9,0.8,41.7-25.2,37.4-58.1c-4.3-32.8-28.1-59.1-53-59.9c-24.9-0.7-41.7,24.4-37.4,57.2
				C82.3,375,106,402.2,131,402.9z"/>
			<polygon class="st0" points="371.6,359.9 371.6,390.9 310.8,390.9 310.8,451.6 280.4,451.6 280.4,390.9 219.6,390.9 219.6,359.9 
				280.4,359.9 280.4,299.1 310.8,299.1 310.8,359.9 			"/>
			<path class="st1" d="M432.4,268.7v304c0,50.4-40.8,91.2-91.2,91.2h-304c-50.4,0-91.2-40.8-91.2-91.2v-304
				c0-50.4,40.8-91.2,91.2-91.2h304C391.6,177.5,432.4,218.3,432.4,268.7z M371.6,390.9v-31h-60.8v-60.8h-30.4v60.8h-60.8v31h60.8
				v60.7h30.4v-60.7H371.6z M202.7,287l21.8-15.7h-97c-43.5,0-84.4,32.9-84.4,71.1c0,39,29.6,70.5,73.8,70.5l9-0.3
				c-2.9,5.5-4.9,11.7-4.9,18.1c0,10.8,5.8,19.6,13.2,26.8l-16.8,0.1c-53.8,0-95.3,34.3-95.3,69.8c0,35,45.4,56.9,99.3,56.9
				c61.4,0,95.3-34.8,95.3-69.8c0-28.1-8.2-44.9-33.9-63c-8.8-6.2-25.5-21.3-25.5-30.2c0-10.4,2.9-15.5,18.6-27.8
				c16-12.5,27.4-30.2,27.4-50.6c0-24.4-10.8-48.1-31.3-56H202.7z"/>
			<path class="st1" d="M190.5,508.5c0.7,3.3,1.2,6.6,1.2,10c0,28.3-18.2,50.4-70.5,50.4c-37.2,0-64.1-23.5-64.1-51.9
				c0-27.8,33.3-50.8,70.5-50.4c8.7,0.1,16.8,1.5,24.1,3.9C172,484.5,186.5,492.5,190.5,508.5z"/>
			<path class="st1" d="M168.3,344.8c4.4,32.8-12.4,58.8-37.4,58.1c-25-0.7-48.7-27.9-53-60.7c-4.3-32.8,12.4-57.9,37.4-57.2
				C140.3,285.7,164,312.1,168.3,344.8z"/>
		</g>
		<g>
			<path class="st2" d="M341.2,177.5h-304c-50.4,0-91.2,40.8-91.2,91.2v304c0,50.4,40.8,91.2,91.2,91.2h304
				c50.4,0,91.2-40.8,91.2-91.2v-304C432.4,218.3,391.6,177.5,341.2,177.5z"/>
			<path class="st2" d="M121.3,584.3c-53.8,0-99.3-21.9-99.3-56.9c0-35.5,41.4-69.9,95.3-69.8l16.8-0.1
				c-7.3-7.2-13.2-15.9-13.2-26.8c0-6.5,2.1-12.6,4.9-18.1l-9,0.3c-44.2,0-73.8-31.5-73.8-70.5c0-38.2,40.9-71.1,84.4-71.1h97
				L202.7,287h-30.7c20.4,7.8,31.3,31.6,31.3,56c0,20.5-11.3,38.1-27.4,50.6c-15.7,12.3-18.6,17.4-18.6,27.8
				c0,8.9,16.8,24,25.5,30.2c25.6,18.1,33.9,34.9,33.9,63C216.6,549.5,182.7,584.3,121.3,584.3z"/>
			<polygon class="st2" points="371.6,390.9 310.8,390.9 310.8,451.6 280.4,451.6 280.4,390.9 219.6,390.9 219.6,359.9 280.4,359.9 
				280.4,299.1 310.8,299.1 310.8,359.9 371.6,359.9 			"/>
			<path class="st2" d="M168.3,344.8c-4.3-32.8-28.1-59.1-53-59.9c-24.9-0.7-41.7,24.4-37.4,57.2c4.3,32.8,28.1,60,53,60.7
				C155.9,403.7,172.7,377.7,168.3,344.8z"/>
			<path class="st2" d="M151.8,470.5c-7.4-2.4-15.5-3.8-24.1-3.9c-37.2-0.4-70.5,22.7-70.5,50.4c0,28.3,26.9,51.9,64.1,51.9
				c52.3,0,70.5-22.1,70.5-50.4c0-3.4-0.5-6.8-1.2-10C186.5,492.5,172,484.5,151.8,470.5z"/>
		</g>
	</g>
</g>
</svg>
