<?xml version="1.0" encoding="utf-8"?>
<!-- Generator: Adobe Illustrator 19.1.0, SVG Export Plug-In . SVG Version: 6.00 Build 0)  -->
<svg version="1.1" id="Capa_1" xmlns="http://www.w3.org/2000/svg" xmlns:xlink="http://www.w3.org/1999/xlink" x="0px" y="0px"
	 viewBox="-42 165.9 510 510" style="enable-background:new -42 165.9 510 510;" xml:space="preserve">
<style type="text/css">
	.st0{fill:#FFFFFF;}
	.st1{fill:none;stroke:#FFFFFF;stroke-miterlimit:10;}
</style>
<g id="post-facebook">
	<g id="XMLID_1_">
		<g>
			<path d="M468,216.9v408c0,28-23,51-51,51H9c-28,0-51-23-51-51v-408c0-28.1,23-51,51-51h408C445,165.9,468,188.8,468,216.9z
				 M391.5,446.4v-76.5H315v-51c0-15.3,10.2-25.5,25.5-25.5h51v-76.5h-63.8c-48.5,0-89.3,40.8-89.3,89.3v63.8h-51v76.5h51v178.5H315
				V446.4H391.5z"/>
			<path class="st0" d="M391.5,369.9v76.5H315v178.5h-76.5V446.4h-51v-76.5h51v-63.8c0-48.5,40.8-89.3,89.3-89.3h63.8v76.5h-51
				c-15.3,0-25.5,10.2-25.5,25.5v51H391.5z"/>
		</g>
		<g>
			<path class="st1" d="M417,165.9H9c-28,0-51,22.9-51,51v408c0,28,23,51,51,51h408c28,0,51-23,51-51v-408
				C468,188.8,445,165.9,417,165.9z"/>
			<path class="st1" d="M391.5,216.9v76.5h-51c-15.3,0-25.5,10.2-25.5,25.5v51h76.5v76.5H315v178.5h-76.5V446.4h-51v-76.5h51v-63.8
				c0-48.5,40.8-89.3,89.3-89.3H391.5z"/>
		</g>
	</g>
</g>
</svg>
