<?xml version="1.0" encoding="utf-8"?>
<!-- Generator: Adobe Illustrator 19.1.0, SVG Export Plug-In . SVG Version: 6.00 Build 0)  -->
<svg version="1.1" id="Capa_1" xmlns="http://www.w3.org/2000/svg" xmlns:xlink="http://www.w3.org/1999/xlink" x="0px" y="0px"
	 viewBox="-42 165.9 510 510" style="enable-background:new -42 165.9 510 510;" xml:space="preserve">
<style type="text/css">
	.st0{fill:#FFFFFF;}
	.st1{fill:none;stroke:#FFFFFF;stroke-miterlimit:10;}
</style>
<g id="post-linkedin">
	<g id="XMLID_1_">
		<g>
			<path class="st0" d="M391.5,454v145.4H315V464.2c0-20.4-17.9-38.3-38.3-38.3s-38.3,17.9-38.3,38.3v135.1H162V369.9h76.5v30.6
				c12.8-20.4,40.8-35.7,63.8-35.7C350.7,364.8,391.5,405.6,391.5,454z"/>
			<rect x="34.5" y="369.9" class="st0" width="76.5" height="229.5"/>
			<path class="st0" d="M72.8,234.7c25.5,0,45.9,20.4,45.9,45.9s-20.4,45.9-45.9,45.9s-45.9-20.4-45.9-45.9S47.3,234.7,72.8,234.7z"
				/>
			<path d="M468,216.9v408c0,28-23,51-51,51H9c-28,0-51-23-51-51v-408c0-28.1,23-51,51-51h408C445,165.9,468,188.8,468,216.9z
				 M391.5,599.4V454c0-48.4-40.8-89.3-89.3-89.3c-23,0-51,15.3-63.8,35.7v-30.6H162v229.5h76.5V464.2c0-20.4,17.9-38.3,38.3-38.3
				s38.3,17.9,38.3,38.3v135.1H391.5z M111,599.4V369.9H34.5v229.5H111z M118.7,280.6c0-25.5-20.4-45.9-45.9-45.9
				s-45.9,20.4-45.9,45.9s20.4,45.9,45.9,45.9S118.7,306.1,118.7,280.6z"/>
		</g>
		<g>
			<path class="st1" d="M417,165.9H9c-28,0-51,22.9-51,51v408c0,28,23,51,51,51h408c28,0,51-23,51-51v-408
				C468,188.8,445,165.9,417,165.9z"/>
			<rect x="34.5" y="369.9" class="st1" width="76.5" height="229.5"/>
			<path class="st1" d="M72.8,326.5c-25.5,0-45.9-20.4-45.9-45.9s20.4-45.9,45.9-45.9s45.9,20.4,45.9,45.9S98.3,326.5,72.8,326.5z"
				/>
			<path class="st1" d="M391.5,599.4H315V464.2c0-20.4-17.9-38.3-38.3-38.3s-38.3,17.9-38.3,38.3v135.1H162V369.9h76.5v30.6
				c12.8-20.4,40.8-35.7,63.8-35.7c48.5,0,89.3,40.8,89.3,89.3V599.4z"/>
		</g>
	</g>
</g>
</svg>
